General
Complete name                            : Hotel.Desire.(2011).BRRip.480p.x264.Ger.AAC.5.1.AMX.mp4
Format                                   : MPEG-4
Format profile                           : Base Media
Codec ID                                 : isom
File size                                : 351 MiB
Duration                                 : 39mn 15s
Overall bit rate mode                    : Variable
Overall bit rate                         : 1 249 Kbps

Video
ID                                       : 1
Format                                   : AVC
Format/Info                              : Advanced Video Codec
Format profile                           : High@L3.0
Format settings, CABAC                   : Yes
Format settings, ReFrames                : 8 frames
Codec ID                                 : avc1
Codec ID/Info                            : Advanced Video Coding
Duration                                 : 39mn 15s
Bit rate                                 : 918 Kbps
Maximum bit rate                         : 5 278 Kbps
Width                                    : 720 pixels
Height                                   : 304 pixels
Display aspect ratio                     : 2.35:1
Frame rate mode                          : Constant
Frame rate                               : 23.976 fps
Color space                              : YUV
Chroma subsampling                       : 4:2:0
Bit depth                                : 8 bits
Scan type                                : Progressive
Bits/(Pixel*Frame)                       : 0.175
Stream size                              : 258 MiB (73%)
Writing library                          : x264 core 125 r2200 999b753

Audio
ID                                       : 2
Format                                   : AAC
Format/Info                              : Advanced Audio Codec
Format profile                           : LC
Codec ID                                 : 40
Duration                                 : 39mn 15s
Bit rate mode                            : Variable
Bit rate                                 : 327 Kbps
Maximum bit rate                         : 394 Kbps
Channel(s)                               : 6 channels
Channel positions                        : Front: L C R, Side: L R, LFE
Sampling rate                            : 48.0 KHz
Compression mode                         : Lossy
Stream size                              : 91.8 MiB (26%)
Language                                 : German
